<svg width="36" height="36" viewBox="0 0 36 36" fill="none" xmlns="http://www.w3.org/2000/svg">
<path fill-rule="evenodd" clip-rule="evenodd" d="M23.5737 25.4606H12.7437C12.1227 25.4606 11.6187 24.9566 11.6187 24.3356C11.6187 23.7146 12.1227 23.2106 12.7437 23.2106H23.5737C24.1947 23.2106 24.6987 23.7146 24.6987 24.3356C24.6987 24.9566 24.1947 25.4606 23.5737 25.4606Z" fill="white"/>
<path fill-rule="evenodd" clip-rule="evenodd" d="M23.5737 19.1808H12.7437C12.1227 19.1808 11.6187 18.6768 11.6187 18.0558C11.6187 17.4348 12.1227 16.9308 12.7437 16.9308H23.5737C24.1947 16.9308 24.6987 17.4348 24.6987 18.0558C24.6987 18.6768 24.1947 19.1808 23.5737 19.1808Z" fill="white"/>
<path fill-rule="evenodd" clip-rule="evenodd" d="M16.8757 12.9156H12.7432C12.1222 12.9156 11.6182 12.4116 11.6182 11.7906C11.6182 11.1696 12.1222 10.6656 12.7432 10.6656H16.8757C17.4967 10.6656 18.0007 11.1696 18.0007 11.7906C18.0007 12.4116 17.4967 12.9156 16.8757 12.9156Z" fill="white"/>
<mask id="mask0_1_5102" style="mask-type:alpha" maskUnits="userSpaceOnUse" x="4" y="3" width="28" height="30">
<path fill-rule="evenodd" clip-rule="evenodd" d="M4.5 3.0003H31.747V32.865H4.5V3.0003Z" fill="white"/>
</mask>
<g mask="url(#mask0_1_5102)">
<path fill-rule="evenodd" clip-rule="evenodd" d="M23.8631 5.25L12.3296 5.256C8.83757 5.277 6.74957 7.437 6.74957 11.0355V24.8295C6.74957 28.452 8.85707 30.615 12.3836 30.615L23.9171 30.6105C27.4091 30.5895 29.4971 28.4265 29.4971 24.8295V11.0355C29.4971 7.413 27.3911 5.25 23.8631 5.25ZM12.3851 32.865C7.66907 32.865 4.49957 29.6355 4.49957 24.8295V11.0355C4.49957 6.186 7.57007 3.0345 12.3221 3.006L23.8616 3H23.8631C28.5791 3 31.7471 6.2295 31.7471 11.0355V24.8295C31.7471 29.6775 28.6766 32.8305 23.9246 32.8605L12.3851 32.865Z" fill="white"/>
</g>
</svg>
