<svg width="20" height="20" viewBox="0 0 20 20" fill="none" xmlns="http://www.w3.org/2000/svg">
<path fill-rule="evenodd" clip-rule="evenodd" d="M9.66958 0.529297C4.36131 0.529297 0.0541992 4.83641 0.0541992 10.1447C0.0541992 15.4529 4.36131 19.7601 9.66958 19.7601C14.9674 19.7601 19.285 15.4529 19.285 10.1447C19.285 4.83641 14.9674 0.529297 9.66958 0.529297ZM16.0207 4.96155C17.1679 6.35901 17.8562 8.14235 17.8771 10.0717C17.6059 10.0195 14.8944 9.46681 12.1621 9.81095C12.0995 9.67539 12.0474 9.52937 11.9848 9.38337C11.8179 8.98708 11.6302 8.58035 11.4425 8.19449C14.4669 6.96389 15.8434 5.19099 16.0207 4.96155ZM9.66958 1.94762C11.7554 1.94762 13.6638 2.72978 15.1134 4.01253C14.9674 4.2211 13.7264 5.8793 10.8063 6.97432C9.46101 4.50268 7.96968 2.47949 7.74026 2.16662C8.35555 2.02062 9.00214 1.94762 9.66958 1.94762ZM6.17593 2.71935C6.39493 3.01135 7.85497 5.04499 9.22114 7.46447C5.38333 8.48649 1.99397 8.46564 1.62895 8.46564C2.16081 5.92101 3.88158 3.80395 6.17593 2.71935ZM1.45166 10.1551C1.45166 10.0717 1.45166 9.98826 1.45166 9.90482C1.80624 9.91524 5.79007 9.96739 9.88858 8.7368C10.1284 9.19566 10.3474 9.66495 10.556 10.1343C10.4517 10.1655 10.337 10.1968 10.2327 10.2281C5.99864 11.5943 3.74601 15.3278 3.5583 15.6407C2.25468 14.1911 1.45166 12.2617 1.45166 10.1551ZM9.66958 18.3626C7.77155 18.3626 6.01949 17.716 4.63245 16.6314C4.77847 16.329 6.44708 13.1169 11.0775 11.5004C11.0983 11.49 11.1088 11.49 11.1296 11.4796C12.2872 14.4726 12.7565 16.986 12.8817 17.7056C11.8909 18.1332 10.8063 18.3626 9.66958 18.3626ZM14.2479 16.9547C14.1644 16.4541 13.7264 14.0555 12.6522 11.1041C15.2282 10.6974 17.4808 11.3649 17.7624 11.4587C17.4078 13.7426 16.0937 15.7137 14.2479 16.9547Z" fill="#FA9191"/>
</svg>
