<svg width="71" height="41" viewBox="0 0 71 41" fill="none" xmlns="http://www.w3.org/2000/svg">
<g clip-path="url(#clip0_2_5379)">
<rect x="0.355469" y="1.20306" width="33.6722" height="39.4833" rx="4" fill="url(#paint0_linear_2_5379)"/>
<path fill-rule="evenodd" clip-rule="evenodd" d="M34.7294 27.3853L27.8594 21.1086L34.7582 14.8319L34.1956 14.3186L27.1309 20.7457L23.3153 20.7457L23.3286 14.9382L23.3303 14.2123L23.367 -1.75818L22.5707 -1.75818L22.534 14.2123L11.3866 14.2123L11.4233 -1.75818L10.627 -1.75818L10.5903 14.2123L10.5887 14.9382L10.5753 20.7457L6.75891 20.7457L-0.275818 14.3186L-0.840114 14.8319L6.03015 21.1086L-0.868953 27.3853L-0.307015 27.8987L6.75724 21.4716L10.5737 21.4716L10.5603 27.279L10.5586 28.005L10.522 43.9754L11.3182 43.9754L11.3549 28.005L22.5024 28.005L22.4657 43.9754L23.2619 43.9754L23.2994 27.642C23.2999 27.4415 23.1221 27.279 22.9021 27.279L11.3566 27.279L11.3707 21.1086L11.3849 14.9382L22.5324 14.9382L22.5182 21.1086C22.5177 21.3091 22.6956 21.4716 22.9155 21.4716L27.1292 21.4716L34.1644 27.8987L34.7294 27.3853Z" fill="#47453F"/>
</g>
<rect x="0.355469" y="1.20306" width="33.6722" height="39.4833" rx="4" stroke="#47453F" stroke-width="0.6"/>
<path d="M66.2905 30.7233C65.9642 30.637 65.6428 30.2872 65.5855 29.9547C65.5483 29.7382 65.6098 29.5885 65.9817 28.9906C67.4858 26.575 68.1846 24.3484 68.2881 21.6419C68.3881 19.0263 67.9236 16.9883 66.6663 14.5421C66.397 14.017 66.1782 13.5296 66.1809 13.4593C66.1908 13.1997 66.4504 12.8247 66.7207 12.6784C67.0917 12.478 67.6999 12.519 67.9826 12.7634C68.0906 12.8573 68.3662 13.283 68.5939 13.7089C69.4948 15.3961 70.0859 17.2452 70.3394 19.1679C70.4963 20.3577 70.4504 22.6111 70.2466 23.6986C69.8728 25.7047 69.2063 27.493 68.1831 29.2429C67.564 30.3008 67.1854 30.7353 66.8805 30.7337C66.8195 30.7334 66.7204 30.7464 66.6601 30.7625C66.5985 30.7784 66.4318 30.7608 66.2905 30.7233ZM62.4294 28.8789C61.9297 28.7457 61.5862 28.1936 61.7473 27.7822C61.7861 27.6826 62.0424 27.224 62.3156 26.7633C63.4711 24.8124 64.0014 22.7173 63.8596 20.6569C63.7439 18.964 63.4422 17.8951 62.6405 16.3292C62.1032 15.2787 62.0822 15.1162 62.4343 14.6963C62.7701 14.2969 63.5691 14.236 63.9751 14.5789C64.2567 14.8166 65.0944 16.4937 65.4071 17.4427C66.4406 20.5831 66.1356 23.9469 64.5403 27.0183C63.7237 28.5917 63.1731 29.0766 62.4294 28.8789ZM58.4473 27.0082C58.1395 26.8816 57.8821 26.5872 57.8208 26.2915C57.7822 26.1114 57.8677 25.9127 58.2629 25.2488C59.7185 22.8103 59.8228 20.4547 58.5831 18.0591C58.0381 17.0068 58.0331 16.798 58.5432 16.3868C58.7962 16.1839 58.9001 16.1483 59.2438 16.1501C59.8185 16.1531 60.1058 16.4108 60.5838 17.3493C61.3188 18.7929 61.5941 20.0434 61.5304 21.6433C61.4649 23.2878 61.1195 24.4151 60.2182 25.9287C59.7011 26.7953 59.4537 27.0235 58.9675 27.0798C58.8189 27.097 58.5853 27.0647 58.4473 27.0082ZM54.7316 25.2655C54.4873 25.1734 54.2172 24.8732 54.1428 24.6131C54.0605 24.3224 54.1458 24.0924 54.5375 23.5525C55.0416 22.858 55.1675 22.4846 55.2023 21.5738C55.2371 20.663 55.1398 20.2883 54.689 19.5888C54.5359 19.3517 54.3846 19.0678 54.3511 18.9579C54.2156 18.4977 54.6678 17.9371 55.2514 17.8436C55.7462 17.7644 56.0761 17.9606 56.5036 18.5884C57.7421 20.4062 57.6496 22.8254 56.2733 24.6141C55.7873 25.2453 55.2637 25.4665 54.7316 25.2655Z" fill="black"/>
<defs>
<linearGradient id="paint0_linear_2_5379" x1="0.627018" y1="1.20307" x2="48.594" y2="50.3022" gradientUnits="userSpaceOnUse">
<stop stop-color="#F8ECC1"/>
<stop offset="1" stop-color="#C8AC48"/>
</linearGradient>
<clipPath id="clip0_2_5379">
<rect x="0.355469" y="1.20306" width="33.6722" height="39.4833" rx="4" fill="white"/>
</clipPath>
</defs>
</svg>
