<svg width="31" height="26" viewBox="0 0 31 26" fill="none" xmlns="http://www.w3.org/2000/svg">
<path d="M28.8921 14.5804L28.8925 14.5816C29.8019 17.5717 28.9709 20.6052 26.7604 22.5445L26.7547 22.5495L26.7492 22.5546C25.3273 23.8534 23.4678 24.5783 21.525 24.5783H5.98299C2.36135 24.3011 0.75 21.5471 0.75 19.0433C0.75 18.8902 0.750432 18.7726 0.76192 18.6462L0.762653 18.6382L0.763212 18.6301C0.910419 16.5023 2.22215 14.324 4.84347 13.6818L5.57759 13.5019L5.39205 12.7692C4.5621 9.49163 5.27286 6.48161 7.35213 4.30659L7.35218 4.30654C9.75185 1.7959 13.5961 0.794627 16.8923 1.81951L16.8956 1.82051C19.884 2.73478 22.0267 5.19289 22.8025 8.71947L22.9045 9.1832L23.3673 9.28934C24.8533 9.63015 26.1685 10.4049 27.1568 11.5286L27.1643 11.5371L27.172 11.5454C27.9449 12.3725 28.5338 13.3952 28.8921 14.5804Z" stroke="white" stroke-width="1.5"/>
</svg>
