<svg width="10" height="6" viewBox="0 0 10 6" fill="none" xmlns="http://www.w3.org/2000/svg">
<path d="M0.956 3.9612C1.3652 1.9962 3.0758 0.6 5 0.6C6.9236 0.6 8.6342 1.9962 9.044 3.9612C9.06023 4.03917 9.10677 4.10751 9.17339 4.15116C9.24 4.19482 9.32123 4.21023 9.3992 4.194C9.47717 4.17777 9.54551 4.13123 9.58917 4.06461C9.63282 3.998 9.64823 3.91677 9.632 3.8388C9.1658 1.6038 7.2158 0 5 0C2.7842 0 0.8342 1.6038 0.368 3.8388C0.351768 3.91677 0.367177 3.998 0.410835 4.06461C0.454494 4.13123 0.522826 4.17777 0.6008 4.194C0.678773 4.21023 0.760001 4.19482 0.826614 4.15116C0.893227 4.10751 0.939768 4.03917 0.956 3.9612ZM4.994 1.8C5.55095 1.8 6.0851 2.02125 6.47892 2.41508C6.87275 2.8089 7.094 3.34305 7.094 3.9C7.094 4.45695 6.87275 4.9911 6.47892 5.38492C6.0851 5.77875 5.55095 6 4.994 6C4.43705 6 3.9029 5.77875 3.50908 5.38492C3.11525 4.9911 2.894 4.45695 2.894 3.9C2.894 3.34305 3.11525 2.8089 3.50908 2.41508C3.9029 2.02125 4.43705 1.8 4.994 1.8Z" fill="black"/>
</svg>
