<svg width="24" height="24" viewBox="0 0 24 24" fill="none" xmlns="http://www.w3.org/2000/svg">
<mask id="mask0_1_4430" style="mask-type:alpha" maskUnits="userSpaceOnUse" x="0" y="0" width="24" height="24">
<circle cx="12" cy="12" r="12" fill="#C4C4C4"/>
</mask>
<g mask="url(#mask0_1_4430)">
<rect width="32.25" height="24" rx="2.3" fill="white"/>
<mask id="mask1_1_4430" style="mask-type:alpha" maskUnits="userSpaceOnUse" x="0" y="0" width="33" height="24">
<rect width="32.25" height="24" rx="2.3" fill="white"/>
</mask>
<g mask="url(#mask1_1_4430)">
<path fill-rule="evenodd" clip-rule="evenodd" d="M32.25 0H0V1.6H32.25V0ZM32.25 3.2H0V4.8H32.25V3.2ZM0 6.4H32.25V8H0V6.4ZM32.25 9.6H0V11.2H32.25V9.6ZM0 12.8H32.25V14.4H0V12.8ZM32.25 16H0V17.6H32.25V16ZM0 19.2H32.25V20.8H0V19.2ZM32.25 22.4H0V24H32.25V22.4Z" fill="#D02F44"/>
<rect width="13.8214" height="11.2" fill="#46467F"/>
<g filter="url(#filter0_d_1_4430)">
<path fill-rule="evenodd" clip-rule="evenodd" d="M3.07143 2.40001C3.07143 2.84183 2.72765 3.20001 2.30357 3.20001C1.87949 3.20001 1.53571 2.84183 1.53571 2.40001C1.53571 1.95818 1.87949 1.60001 2.30357 1.60001C2.72765 1.60001 3.07143 1.95818 3.07143 2.40001ZM6.14286 2.40001C6.14286 2.84184 5.79907 3.20001 5.375 3.20001C4.95092 3.20001 4.60714 2.84184 4.60714 2.40001C4.60714 1.95818 4.95092 1.60001 5.375 1.60001C5.79907 1.60001 6.14286 1.95818 6.14286 2.40001ZM8.44643 3.20001C8.8705 3.20001 9.21428 2.84184 9.21428 2.40001C9.21428 1.95818 8.8705 1.60001 8.44643 1.60001C8.02235 1.60001 7.67857 1.95818 7.67857 2.40001C7.67857 2.84184 8.02235 3.20001 8.44643 3.20001ZM12.2857 2.40001C12.2857 2.84184 11.9419 3.20001 11.5179 3.20001C11.0938 3.20001 10.75 2.84184 10.75 2.40001C10.75 1.95818 11.0938 1.60001 11.5179 1.60001C11.9419 1.60001 12.2857 1.95818 12.2857 2.40001ZM3.83929 4.80002C4.26336 4.80002 4.60714 4.44184 4.60714 4.00002C4.60714 3.55819 4.26336 3.20002 3.83929 3.20002C3.41521 3.20002 3.07143 3.55819 3.07143 4.00002C3.07143 4.44184 3.41521 4.80002 3.83929 4.80002ZM7.67857 4.00002C7.67857 4.44184 7.33479 4.80002 6.91071 4.80002C6.48664 4.80002 6.14286 4.44184 6.14286 4.00002C6.14286 3.55819 6.48664 3.20002 6.91071 3.20002C7.33479 3.20002 7.67857 3.55819 7.67857 4.00002ZM9.98214 4.80002C10.4062 4.80002 10.75 4.44184 10.75 4.00002C10.75 3.55819 10.4062 3.20002 9.98214 3.20002C9.55806 3.20002 9.21428 3.55819 9.21428 4.00002C9.21428 4.44184 9.55806 4.80002 9.98214 4.80002ZM12.2857 5.60001C12.2857 6.04184 11.9419 6.40001 11.5179 6.40001C11.0938 6.40001 10.75 6.04184 10.75 5.60001C10.75 5.15818 11.0938 4.80001 11.5179 4.80001C11.9419 4.80001 12.2857 5.15818 12.2857 5.60001ZM8.44643 6.40001C8.8705 6.40001 9.21428 6.04184 9.21428 5.60001C9.21428 5.15818 8.8705 4.80001 8.44643 4.80001C8.02235 4.80001 7.67857 5.15818 7.67857 5.60001C7.67857 6.04184 8.02235 6.40001 8.44643 6.40001ZM6.14286 5.60001C6.14286 6.04184 5.79907 6.40001 5.375 6.40001C4.95092 6.40001 4.60714 6.04184 4.60714 5.60001C4.60714 5.15818 4.95092 4.80001 5.375 4.80001C5.79907 4.80001 6.14286 5.15818 6.14286 5.60001ZM2.30357 6.40001C2.72765 6.40001 3.07143 6.04184 3.07143 5.60001C3.07143 5.15818 2.72765 4.80001 2.30357 4.80001C1.8795 4.80001 1.53571 5.15818 1.53571 5.60001C1.53571 6.04184 1.8795 6.40001 2.30357 6.40001ZM4.60714 7.20002C4.60714 7.64184 4.26336 8.00002 3.83929 8.00002C3.41521 8.00002 3.07143 7.64184 3.07143 7.20002C3.07143 6.75819 3.41521 6.40002 3.83929 6.40002C4.26336 6.40002 4.60714 6.75819 4.60714 7.20002ZM6.91071 8.00002C7.33479 8.00002 7.67857 7.64184 7.67857 7.20002C7.67857 6.75819 7.33479 6.40002 6.91071 6.40002C6.48664 6.40002 6.14286 6.75819 6.14286 7.20002C6.14286 7.64184 6.48664 8.00002 6.91071 8.00002ZM10.75 7.20002C10.75 7.64184 10.4062 8.00002 9.98214 8.00002C9.55806 8.00002 9.21428 7.64184 9.21428 7.20002C9.21428 6.75819 9.55806 6.40002 9.98214 6.40002C10.4062 6.40002 10.75 6.75819 10.75 7.20002ZM11.5179 9.60001C11.9419 9.60001 12.2857 9.24184 12.2857 8.80001C12.2857 8.35818 11.9419 8.00001 11.5179 8.00001C11.0938 8.00001 10.75 8.35818 10.75 8.80001C10.75 9.24184 11.0938 9.60001 11.5179 9.60001ZM9.21428 8.80001C9.21428 9.24184 8.8705 9.60001 8.44643 9.60001C8.02235 9.60001 7.67857 9.24184 7.67857 8.80001C7.67857 8.35818 8.02235 8.00001 8.44643 8.00001C8.8705 8.00001 9.21428 8.35818 9.21428 8.80001ZM5.375 9.60001C5.79907 9.60001 6.14286 9.24184 6.14286 8.80001C6.14286 8.35818 5.79907 8.00001 5.375 8.00001C4.95092 8.00001 4.60714 8.35818 4.60714 8.80001C4.60714 9.24184 4.95092 9.60001 5.375 9.60001ZM3.07143 8.80001C3.07143 9.24184 2.72765 9.60001 2.30357 9.60001C1.8795 9.60001 1.53571 9.24184 1.53571 8.80001C1.53571 8.35818 1.8795 8.00001 2.30357 8.00001C2.72765 8.00001 3.07143 8.35818 3.07143 8.80001Z" fill="url(#paint0_linear_1_4430)"/>
</g>
</g>
</g>
<defs>
<filter id="filter0_d_1_4430" x="1.53571" y="1.60001" width="10.75" height="9.15" filterUnits="userSpaceOnUse" color-interpolation-filters="sRGB">
<feFlood flood-opacity="0" result="BackgroundImageFix"/>
<feColorMatrix in="SourceAlpha" type="matrix" values="0 0 0 0 0 0 0 0 0 0 0 0 0 0 0 0 0 0 127 0" result="hardAlpha"/>
<feOffset dy="1.15"/>
<feColorMatrix type="matrix" values="0 0 0 0 0 0 0 0 0 0 0 0 0 0 0 0 0 0 0.06 0"/>
<feBlend mode="normal" in2="BackgroundImageFix" result="effect1_dropShadow_1_4430"/>
<feBlend mode="normal" in="SourceGraphic" in2="effect1_dropShadow_1_4430" result="shape"/>
</filter>
<linearGradient id="paint0_linear_1_4430" x1="1.53571" y1="1.60001" x2="1.53571" y2="9.60001" gradientUnits="userSpaceOnUse">
<stop stop-color="white"/>
<stop offset="1" stop-color="#F0F0F0"/>
</linearGradient>
</defs>
</svg>
