<svg width="13" height="13" viewBox="0 0 13 13" fill="none" xmlns="http://www.w3.org/2000/svg">
<path d="M1.5 7.125V12.125H5.875V7.125H1.5ZM6.5 7.125V12.125H10.875V7.125H6.5ZM11.5 7.125V12.75H0.875V7.125H0.25V3.375H2.14687L2.125 3.0625C2.12483 2.58417 2.28146 2.11897 2.57088 1.73813C2.86031 1.3573 3.26659 1.08183 3.7275 0.953912C4.18841 0.825992 4.67854 0.852672 5.12284 1.02987C5.56715 1.20706 5.94112 1.525 6.1875 1.935C6.43388 1.525 6.80785 1.20706 7.25216 1.02987C7.69646 0.852672 8.18659 0.825992 8.6475 0.953912C9.10841 1.08183 9.51469 1.3573 9.80412 1.73813C10.0935 2.11897 10.2502 2.58417 10.25 3.0625L10.2281 3.375H12.125V7.125H11.5ZM0.875 4V6.5H5.875V4H0.875ZM11.5 6.5V4H6.5V6.5H11.5ZM9.59375 3.375L9.625 3.0625C9.625 2.6481 9.46038 2.25067 9.16735 1.95765C8.87433 1.66462 8.4769 1.5 8.0625 1.5C7.6481 1.5 7.25067 1.66462 6.95765 1.95765C6.66462 2.25067 6.5 2.6481 6.5 3.0625V3.375H9.59375ZM5.875 3.375V3.0625C5.875 2.6481 5.71038 2.25067 5.41735 1.95765C5.12433 1.66462 4.7269 1.5 4.3125 1.5C3.8981 1.5 3.50067 1.66462 3.20765 1.95765C2.91462 2.25067 2.75 2.6481 2.75 3.0625L2.78125 3.375H5.875Z" fill="black"/>
</svg>
