<svg width="21" height="21" viewBox="0 0 21 21" fill="none" xmlns="http://www.w3.org/2000/svg">
<path d="M10.2 20.7C4.56 20.7 0 16.14 0 10.5C0 4.85999 4.56 0.299988 10.2 0.299988C15.84 0.299988 20.4 4.85999 20.4 10.5C20.4 16.14 15.84 20.7 10.2 20.7ZM10.2 1.49999C5.22 1.49999 1.2 5.51999 1.2 10.5C1.2 15.48 5.22 19.5 10.2 19.5C15.18 19.5 19.2 15.48 19.2 10.5C19.2 5.51999 15.18 1.49999 10.2 1.49999Z" fill="black"/>
<path d="M7.08009 7.26034C7.26009 6.78034 7.44009 6.42034 7.80009 6.12034C8.10009 5.82034 8.46009 5.58034 8.94009 5.40034C9.42009 5.22034 9.90009 5.16034 10.4401 5.16034C10.8601 5.16034 11.2801 5.22034 11.6401 5.34034C12.0001 5.46034 12.3601 5.64034 12.6601 5.88034C12.9601 6.12034 13.2001 6.42034 13.3201 6.78034C13.5001 7.14034 13.5601 7.56034 13.5601 7.98034C13.5601 8.58034 13.4401 9.06034 13.2001 9.48034C12.9601 9.90034 12.6001 10.2603 12.2401 10.6803L11.4601 11.4603C11.2801 11.6403 11.1001 11.8203 11.0401 12.0003C10.9201 12.1803 10.8601 12.4203 10.8601 12.6603C10.8001 12.9003 10.8001 13.0803 10.8001 13.5603H9.84009C9.84009 13.0803 9.84009 12.9003 9.90009 12.5403C9.96009 12.2403 10.0801 11.9403 10.2001 11.6403C10.3201 11.4003 10.5001 11.1603 10.7401 10.9203C10.9801 10.6803 11.2801 10.4403 11.5801 10.0803C11.8801 9.78034 12.1201 9.48034 12.3001 9.18034C12.4801 8.88034 12.6001 8.46034 12.6001 8.10034C12.6001 7.80034 12.5401 7.50034 12.4201 7.26034C12.3001 7.02034 12.1201 6.78034 11.9401 6.60034C11.7601 6.42034 11.5201 6.30034 11.2201 6.18034C10.9201 6.06034 10.6801 6.00034 10.3801 6.00034C9.96009 6.00034 9.60009 6.06034 9.30009 6.24034C9.00009 6.36034 8.70009 6.60034 8.52009 6.84034C8.34009 7.08034 8.16009 7.38034 8.04009 7.74034C7.92009 8.10034 7.80009 8.28034 7.80009 8.70034H6.84009C6.84009 8.16034 6.90009 7.74034 7.08009 7.26034ZM10.8001 14.7003V15.9003H9.60009V14.7003H10.8001Z" fill="black"/>
</svg>
