<svg width="36" height="36" viewBox="0 0 36 36" fill="none" xmlns="http://www.w3.org/2000/svg">
<path d="M18 0C8.1 0 0 8.1 0 18C0 27.9 8.1 36 18 36C27.9 36 36 27.9 36 18C36 8.1 27.9 0 18 0ZM13.68 27.36C13.284 27.36 12.744 27.216 12.24 27L11.214 29.52L9.162 28.8L9.45 28.098C11.61 22.662 14.094 16.47 23.4 14.4C23.4 14.4 12.6 14.4 9.09 24.39C9.09 24.39 7.2 22.5 7.2 20.34C7.2 18.18 9.36 13.59 14.76 12.51C16.29 12.204 18 11.97 19.692 11.7C23.94 11.124 28.026 10.548 28.8 9C28.8 9 25.56 27.36 13.68 27.36Z" fill="white"/>
</svg>
