<svg width="73" height="50" viewBox="0 0 73 50" fill="none" xmlns="http://www.w3.org/2000/svg">
<path d="M68.7218 49.1137L68.7167 49.2392L68.8472 49.2406C68.8756 49.2409 68.9004 49.2344 68.9188 49.2254C68.9361 49.2154 68.9458 49.1984 68.9466 49.1778C68.9474 49.1573 68.939 49.1424 68.9226 49.1319C68.9049 49.1215 68.8806 49.1155 68.8522 49.1152L68.7218 49.1137ZM68.857 49.0285C68.9242 49.0293 68.9753 49.0436 69.0117 49.0702C69.0468 49.0968 69.0634 49.1335 69.0616 49.1791C69.06 49.2179 69.0445 49.2497 69.0138 49.2744C68.9844 49.2981 68.9424 49.3136 68.8879 49.3198L69.0527 49.4962L68.9183 49.4947L68.7651 49.3195L68.7135 49.319L68.7065 49.4923L68.5941 49.491L68.6129 49.0258L68.857 49.0285ZM68.7968 49.6553C68.8588 49.656 68.9161 49.6452 68.9699 49.6253C69.0237 49.6054 69.0713 49.5785 69.1128 49.5436C69.1542 49.5087 69.1869 49.468 69.2121 49.4193C69.2359 49.3727 69.2509 49.3227 69.2531 49.268C69.2553 49.2132 69.2444 49.1618 69.2244 49.1148C69.203 49.0678 69.1737 49.0252 69.1351 48.9894C69.0965 48.9536 69.0511 48.9258 68.999 48.9046C68.9468 48.8847 68.8904 48.8738 68.8284 48.8731C68.7664 48.8724 68.7078 48.882 68.6528 48.9008C68.5978 48.9207 68.5489 48.9475 68.5074 48.9824C68.4659 49.0173 68.4332 49.0592 68.4094 49.1057C68.3842 49.1522 68.3706 49.2033 68.3683 49.2581C68.3661 49.3128 68.3757 49.3631 68.3971 49.4101C68.4171 49.4594 68.4464 49.5008 68.485 49.5366C68.5237 49.5724 68.5703 49.6003 68.6238 49.6214C68.6772 49.6426 68.7348 49.6546 68.7968 49.6553ZM68.8329 48.7602C68.9143 48.7611 68.9874 48.7756 69.0574 48.8026C69.126 48.8296 69.1853 48.8668 69.2364 48.913C69.2876 48.9581 69.3267 49.0121 69.354 49.074C69.3812 49.1348 69.3941 49.2 69.3913 49.2695C69.3885 49.3379 69.3704 49.4039 69.3382 49.464C69.3061 49.5241 69.2626 49.5761 69.2078 49.6223C69.153 49.6661 69.0909 49.702 69.0201 49.7274C68.948 49.7528 68.8738 49.7657 68.7924 49.7648C68.7098 49.7638 68.6354 49.7493 68.5654 49.7223C68.4954 49.6953 68.4349 49.6581 68.385 49.613C68.334 49.5657 68.296 49.5128 68.2675 49.452C68.2402 49.3912 68.2274 49.3249 68.2301 49.2565C68.2329 49.187 68.2511 49.1221 68.2832 49.062C68.3167 49.0008 68.3589 48.9477 68.4136 48.9038C68.4672 48.8588 68.5306 48.823 68.6027 48.7975C68.6748 48.7721 68.7503 48.7592 68.8329 48.7602ZM15.514 46.3682C15.5498 45.4799 16.2379 44.7575 17.3151 44.7696C18.3445 44.7811 19.0112 45.4879 18.9742 46.407C18.9371 47.326 18.214 48.0172 17.1846 48.0057C16.1074 47.9936 15.4781 47.2565 15.514 46.3682ZM20.147 46.4201L20.2488 43.8944L19.0037 43.8804L18.979 44.4939C18.6034 44.0345 18.0156 43.7416 17.2019 43.7325C15.5977 43.7145 14.2949 44.811 14.2327 46.3538C14.1704 47.8978 15.3837 49.0214 16.9879 49.0393C17.8016 49.0485 18.4125 48.769 18.8247 48.3184L18.8 48.9319L20.0451 48.9458L20.147 46.4201ZM62.1966 46.8913C62.2325 46.003 62.9206 45.2806 63.9978 45.2927C65.0285 45.3043 65.6939 46.011 65.6569 46.9301C65.6198 47.8492 64.898 48.5404 63.8673 48.5289C62.7901 48.5168 62.1608 47.7796 62.1966 46.8913ZM66.8309 46.9433L67.0146 42.3878L65.7682 42.3738L65.6616 45.017C65.286 44.5576 64.6983 44.2647 63.8846 44.2556C62.2791 44.2376 60.9763 45.3341 60.9141 46.877C60.8518 48.4209 62.0651 49.5445 63.6706 49.5625C64.4843 49.5716 65.0951 49.2921 65.5074 48.8416L65.4827 49.455L66.7291 49.469L66.8309 46.9433ZM35.6594 44.9238C36.4614 44.9328 36.9589 45.3821 37.0591 46.1658L34.0897 46.1326C34.2522 45.4043 34.7733 44.9139 35.6594 44.9238ZM35.7236 43.94C34.0471 43.9212 32.8308 44.9868 32.7673 46.5615C32.7025 48.1682 33.8809 49.2287 35.5935 49.2478C36.4563 49.2575 37.2532 49.0759 37.9689 48.566L37.3908 47.745C36.898 48.0772 36.2794 48.2619 35.7046 48.2554C34.9038 48.2465 34.186 47.9099 34.0432 46.9979L38.2926 47.0455C38.311 46.9088 38.3282 46.771 38.3341 46.6239C38.386 45.049 37.3278 43.958 35.7236 43.94ZM50.6419 46.7618C50.6777 45.8736 51.3672 45.1512 52.4444 45.1632C53.4725 45.1748 54.1392 45.8815 54.1021 46.8006C54.0651 47.7197 53.342 48.4109 52.3139 48.3994C51.2367 48.3873 50.6061 47.6501 50.6419 46.7618ZM55.2749 46.8138L55.3767 44.288L54.1329 44.2741L54.1082 44.8876C53.73 44.4281 53.1448 44.1352 52.3311 44.1261C50.7256 44.1081 49.4228 45.2047 49.3606 46.7475C49.2983 48.2914 50.5116 49.415 52.1171 49.433C52.9308 49.4421 53.5391 49.1626 53.954 48.7121L53.9292 49.3256L55.173 49.3395L55.2749 46.8138ZM43.6142 46.6831C43.5524 48.2156 44.7162 49.3501 46.5606 49.3707C47.4234 49.3804 48.0037 49.2169 48.6438 48.7906L48.0815 47.8968C47.6033 48.188 47.1061 48.341 46.5662 48.335C45.5721 48.3124 44.8679 47.6702 44.9071 46.6976C44.9464 45.7249 45.7017 45.0991 46.6967 45.0988C47.2366 45.1049 47.721 45.2689 48.1753 45.5706L48.8091 44.6901C48.204 44.2498 47.6374 44.0735 46.7746 44.0639C44.9302 44.0432 43.676 45.1505 43.6142 46.6831ZM59.7656 44.2094C59.0475 44.2014 58.568 44.4926 58.2258 44.9337L58.2506 44.3202L57.0171 44.3064L56.8134 49.3579L58.0598 49.3718L58.174 46.5405C58.2077 45.7035 58.6333 45.244 59.447 45.2531C59.7002 45.256 59.9611 45.2908 60.2207 45.3884L60.6461 44.3573C60.3749 44.2585 60.0175 44.2123 59.7656 44.2094ZM26.3871 44.3647C25.8019 44.0091 24.9838 43.8197 24.0745 43.8095C22.6241 43.7932 21.6668 44.3962 21.6263 45.4008C21.5931 46.2241 22.2675 46.7405 23.541 46.9133L24.1257 46.994C24.8043 47.086 25.1208 47.2482 25.1093 47.5332C25.0936 47.9244 24.6287 48.1416 23.7801 48.1321C22.9173 48.1224 22.3045 47.8726 21.8975 47.5828L21.2766 48.4314C21.9407 48.8827 22.7937 49.1044 23.7275 49.1149C25.3808 49.1334 26.3656 48.4565 26.4043 47.4953C26.4402 46.607 25.7059 46.1333 24.4659 45.9608L23.8825 45.8802C23.3464 45.8114 22.9188 45.7119 22.9325 45.3732C22.9474 45.0027 23.3632 44.786 24.0452 44.7936C24.7762 44.8018 25.473 45.0526 25.8127 45.247L26.3871 44.3647ZM42.4632 44.0155C41.7451 44.0075 41.2668 44.2987 40.926 44.7398L40.9507 44.1264L39.7173 44.1125L39.5136 49.164L40.7587 49.178L40.8728 46.3466C40.9066 45.5096 41.3322 45.0501 42.1459 45.0592C42.3977 45.0621 42.6599 45.0969 42.9196 45.1945L43.345 44.1635C43.0737 44.0646 42.7164 44.0184 42.4632 44.0155ZM31.8397 44.0243L29.8041 44.0014L29.866 42.4678L28.608 42.4537L28.5461 43.9873L27.3862 43.9743L27.3458 44.9778L28.5057 44.9908L28.4127 47.2953C28.3654 48.4687 28.8526 49.1723 30.3251 49.1888C30.865 49.1949 31.4922 49.0536 31.8972 48.8151L31.5761 47.8704C31.1965 48.0555 30.7858 48.1467 30.4628 48.1431C29.8403 48.1361 29.6512 47.7952 29.6716 47.2877L29.7637 45.0049L31.7993 45.0277L31.8397 44.0243ZM13.0304 48.8672L13.1582 45.6972C13.2064 44.5022 12.376 43.6898 10.9867 43.6628C10.2573 43.6444 9.49492 43.8366 8.93934 44.54C8.56673 43.9745 7.95848 43.6289 7.08418 43.6191C6.47299 43.6122 5.8691 43.764 5.37794 44.3506L5.40304 43.728L4.15741 43.714L3.95371 48.7655L5.21032 48.7796L5.32325 45.979C5.35861 45.1022 5.92828 44.642 6.77933 44.6515C7.6057 44.6607 8.00449 45.1409 7.96991 45.9984L7.85657 48.8092L9.11421 48.8233L9.22714 46.0228C9.2625 45.1459 9.85607 44.686 10.6827 44.6952C11.5313 44.7047 11.9203 45.1848 11.8857 46.0423L11.7723 48.8531L13.0304 48.8672Z" fill="black"/>
<path d="M70.1284 32.626L70.1588 31.8855L69.9404 31.8832L69.6675 32.389L69.4377 31.8778L69.218 31.8755L69.1876 32.616L69.3427 32.6176L69.3655 32.06L69.581 32.5436L69.7426 32.5453L69.9976 32.0644L69.9746 32.6244L70.1284 32.626ZM68.7443 32.6113L68.7695 31.9976L69.05 32.0006L69.0551 31.8749L68.3417 31.8673L68.3366 31.993L68.617 31.996L68.5918 32.6097L68.7443 32.6113Z" fill="#6C6C6C"/>
<path d="M45.2502 35.4929L26.3361 35.2935L27.5732 5.21556L46.4873 5.41494L45.2502 35.4929Z" fill="#5D5D5D"/>
<path d="M28.2211 20.2426C28.4722 14.1446 31.9232 8.74627 37.0914 5.29859C33.523 2.70032 28.949 1.12315 23.9094 1.07025C11.9792 0.945035 1.95608 9.40265 1.52116 19.9623C1.0863 30.5208 10.4044 39.1826 22.3346 39.3078C27.3741 39.3607 32.074 37.8809 35.8533 35.3597C30.9734 31.8066 27.9699 26.3405 28.2211 20.2426Z" fill="black"/>
<path d="M71.3061 20.7419C70.8712 31.3004 60.8486 39.7592 48.9184 39.634C43.8788 39.5811 39.3048 38.0039 35.7351 35.4056C40.9046 31.9579 44.3543 26.5596 44.6054 20.4616C44.8566 14.3637 41.8544 8.89758 36.9732 5.34441C40.7538 2.82327 45.4537 1.34343 50.4932 1.39633C62.4235 1.52155 71.741 10.1822 71.3061 20.7419Z" fill="#6C6C6C"/>
</svg>
