<svg width="24" height="23" viewBox="0 0 24 23" fill="none" xmlns="http://www.w3.org/2000/svg">
<path d="M10.0167 5.42499C7.25833 5.42499 5.01666 7.66665 5.01666 10.425V12.8333C5.01666 13.3417 4.8 14.1167 4.54166 14.55L3.58333 16.1417C2.99166 17.125 3.4 18.2167 4.48333 18.5833C8.075 19.7833 11.95 19.7833 15.5417 18.5833C16.55 18.25 16.9917 17.0583 16.4417 16.1417L15.4833 14.55C15.2333 14.1167 15.0167 13.3417 15.0167 12.8333V10.425C15.0167 7.67499 12.7667 5.42499 10.0167 5.42499Z" stroke="black" stroke-width="1.5" stroke-miterlimit="10" stroke-linecap="round"/>
<path d="M11.5583 5.66667C11.3 5.59167 11.0333 5.53334 10.7583 5.5C9.95833 5.4 9.19166 5.45834 8.475 5.66667C8.71667 5.05 9.31667 4.61667 10.0167 4.61667C10.7167 4.61667 11.3167 5.05 11.5583 5.66667Z" stroke="black" stroke-width="1.5" stroke-miterlimit="10" stroke-linecap="round" stroke-linejoin="round"/>
<path d="M12.5167 18.8833C12.5167 20.2583 11.3917 21.3833 10.0167 21.3833C9.33334 21.3833 8.7 21.1 8.25 20.65C7.8 20.2 7.51667 19.5667 7.51667 18.8833" stroke="black" stroke-width="1.5" stroke-miterlimit="10"/>
<rect x="8" width="16" height="15" rx="7.5" fill="#D80027"/>
<path d="M17.98 4.76H14.92L14.72 7.42H14.79C14.9567 7.18667 15.1433 7 15.35 6.86C15.5633 6.72 15.8533 6.65 16.22 6.65C16.52 6.65 16.7967 6.7 17.05 6.8C17.3033 6.9 17.5233 7.04333 17.71 7.23C17.8967 7.41 18.04 7.63333 18.14 7.9C18.2467 8.16667 18.3 8.47 18.3 8.81C18.3 9.15 18.2467 9.46333 18.14 9.75C18.0333 10.03 17.8767 10.2733 17.67 10.48C17.47 10.68 17.2233 10.8367 16.93 10.95C16.6433 11.0633 16.3167 11.12 15.95 11.12C15.6567 11.12 15.3967 11.0867 15.17 11.02C14.95 10.9533 14.7533 10.8633 14.58 10.75C14.4067 10.6367 14.2533 10.51 14.12 10.37C13.9933 10.23 13.8767 10.0833 13.77 9.93L14.4 9.45C14.4867 9.59 14.5767 9.71667 14.67 9.83C14.77 9.94333 14.8767 10.04 14.99 10.12C15.11 10.2 15.2467 10.2633 15.4 10.31C15.5533 10.35 15.7367 10.37 15.95 10.37C16.43 10.37 16.7933 10.2433 17.04 9.99C17.2867 9.73667 17.41 9.38 17.41 8.92V8.82C17.41 8.36 17.2867 8.00333 17.04 7.75C16.7933 7.49667 16.43 7.37 15.95 7.37C15.63 7.37 15.3767 7.43 15.19 7.55C15.01 7.66333 14.8467 7.8 14.7 7.96L13.99 7.86L14.24 4.02H17.98V4.76Z" fill="white"/>
</svg>
