<svg width="25" height="25" viewBox="0 0 25 25" fill="none" xmlns="http://www.w3.org/2000/svg">
<path d="M10.5 14.5L24.25 0.75" stroke="black" stroke-width="1.5" stroke-linecap="round" stroke-linejoin="round"/>
<path d="M24.2495 0.75L16.1245 23.25C16.0696 23.3697 15.9816 23.4711 15.8708 23.5422C15.76 23.6133 15.6311 23.6511 15.4995 23.6511C15.3678 23.6511 15.239 23.6133 15.1282 23.5422C15.0174 23.4711 14.9293 23.3697 14.8745 23.25L10.4995 14.5L1.74948 10.125C1.6298 10.0702 1.52839 9.98211 1.45729 9.87131C1.38618 9.76052 1.34839 9.63164 1.34839 9.5C1.34839 9.36836 1.38618 9.23948 1.45729 9.12869C1.52839 9.01789 1.6298 8.92984 1.74948 8.875L24.2495 0.75Z" stroke="black" stroke-width="1.5" stroke-linecap="round" stroke-linejoin="round"/>
</svg>
