<svg width="20" height="20" viewBox="0 0 20 20" fill="none" xmlns="http://www.w3.org/2000/svg">
<path d="M10.0153 0.525391C4.70468 0.525391 0.399902 4.83017 0.399902 10.1408C0.399902 15.4514 4.70468 19.7562 10.0153 19.7562C15.3259 19.7562 19.6307 15.4514 19.6307 10.1408C19.6307 4.83083 15.3259 0.526047 10.0153 0.525391ZM14.425 14.3931C14.2525 14.6765 13.8831 14.7651 13.601 14.5925C11.3433 13.2127 8.50097 12.9011 5.15412 13.6654C4.83131 13.7396 4.50982 13.5375 4.43633 13.2147C4.36219 12.8919 4.56362 12.5704 4.88708 12.4969C8.54952 11.6603 11.6917 12.0205 14.2262 13.569C14.5084 13.7429 14.5983 14.1109 14.425 14.3931ZM15.6015 11.7758C15.3843 12.1288 14.9224 12.239 14.57 12.0225C11.9863 10.4341 8.04563 9.97412 4.98878 10.9019C4.59249 11.0219 4.17388 10.7982 4.05316 10.4026C3.93374 10.0063 4.15748 9.58833 4.55312 9.4676C8.04497 8.40797 12.3865 8.92105 15.3541 10.7451C15.7071 10.9622 15.8186 11.4235 15.6015 11.7758ZM15.7025 9.049C12.603 7.20859 7.49055 7.03931 4.53147 7.93688C4.05644 8.08123 3.55385 7.81287 3.41016 7.33785C3.26647 6.86282 3.53417 6.36023 4.00985 6.21589C7.40657 5.18513 13.0524 5.38393 16.6204 7.50188C17.0475 7.75579 17.188 8.30759 16.9347 8.73406C16.6821 9.16185 16.129 9.30291 15.7025 9.049Z" fill="#15CF74"/>
</svg>
