<svg width="20" height="19" viewBox="0 0 20 19" fill="none" xmlns="http://www.w3.org/2000/svg">
<path d="M15.5216 4.37344C15.3788 2.00594 13.2713 0.125 10.6853 0.125C9.14781 0.125 7.78 0.79125 6.89125 1.8275C6.46064 1.70946 6.01619 1.64945 5.56969 1.64906C2.98375 1.64906 0.8875 3.59563 0.8875 5.99594C0.8875 6.85813 1.16125 7.65969 1.6275 8.33563C1.00125 9.105 0.625 10.06 0.625 11.0988C0.625 13.6347 2.83906 15.69 5.57 15.69C6.75656 15.69 7.83875 15.295 8.69 14.6475C8.71063 14.7834 8.72969 14.9225 8.75063 15.0575C8.95375 16.3838 9.13156 17.6578 9.04 18.875L11.2275 18.8516C11.1384 17.4925 10.7916 16.2209 10.4409 15.0181C11.033 15.3121 11.6852 15.465 12.3463 15.4647C14.5609 15.4647 16.3588 13.8225 16.4134 11.7784C18.1219 11.3294 19.375 9.87375 19.375 8.14406C19.375 6.12406 17.6681 4.47938 15.5216 4.37344ZM16.175 10.8719L15.495 11.0506L15.4759 11.7534C15.435 13.2831 14.0309 14.5272 12.3459 14.5272C11.4575 14.5272 10.6184 14.1819 10.0216 13.5806C9.78 12.7338 9.5625 11.8944 9.42406 11.045C9.92406 11.0209 10.4109 10.96 10.8994 10.87C11.5797 10.7422 12.2475 10.5506 12.8797 10.2775C13.5109 10.0056 14.1056 9.65 14.6166 9.20469C15.1234 8.76569 15.5427 8.23493 15.8525 7.64031C15.502 8.20265 15.0488 8.69401 14.5166 9.08875C13.9869 9.48375 13.3881 9.78156 12.7634 9.99688C12.1381 10.2128 11.4856 10.3484 10.8278 10.4219C10.3344 10.4774 9.83759 10.4977 9.34125 10.4828C9.2025 9.33375 9.22875 8.16625 9.47813 7.01781C9.75375 5.73469 10.2916 4.49 10.9975 3.33469C10.1419 4.39063 9.42219 5.57469 8.95125 6.87563C8.67781 7.62531 8.49906 8.41125 8.39906 9.20906C8.16915 9.08139 7.94477 8.94397 7.72656 8.79719C7.32478 8.52819 6.94899 8.22228 6.60406 7.88344C5.92031 7.20938 5.37656 6.36281 5.21313 5.39844C5.27063 6.37406 5.73188 7.31031 6.36906 8.08313C6.69108 8.4729 7.04901 8.83156 7.43813 9.15438C7.72563 9.39344 8.01938 9.61531 8.33813 9.82094C8.30966 10.204 8.29882 10.5881 8.30563 10.9722C8.31469 11.6122 8.36781 12.2469 8.44094 12.875C8.2088 12.8593 7.97751 12.8328 7.74781 12.7956C7.26847 12.7194 6.79897 12.5906 6.34781 12.4116C5.44625 12.0553 4.6325 11.4531 4.06969 10.6481C4.54125 11.5044 5.3075 12.2156 6.21281 12.6841C6.66836 12.9209 7.14867 13.1067 7.645 13.2381C7.93063 13.3128 8.21625 13.3734 8.50875 13.4172C8.515 13.4622 8.52219 13.5056 8.52844 13.5506C7.76719 14.3141 6.69531 14.7528 5.57063 14.7528C3.36031 14.7528 1.5625 13.1134 1.5625 11.0988C1.5625 10.3147 1.83625 9.56406 2.35469 8.92781L2.79875 8.3825L2.39938 7.80344C2.02375 7.25875 1.82531 6.63375 1.82531 5.99594C1.82531 4.11594 3.50531 2.58656 5.57 2.58656C5.92938 2.58656 6.29094 2.63563 6.64469 2.73188L7.21719 2.88813L7.60313 2.43781C8.3525 1.56375 9.47594 1.0625 10.6853 1.0625C12.7584 1.0625 14.4716 2.54156 14.5856 4.42969L14.6359 5.26813L15.4753 5.30969C17.1363 5.39188 18.4375 6.63656 18.4375 8.14406C18.4375 9.4 17.5069 10.5216 16.175 10.8719Z" fill="black"/>
</svg>
