<svg width="33" height="25" viewBox="0 0 33 25" fill="none" xmlns="http://www.w3.org/2000/svg">
<path d="M26.5 20.5738C27.8924 20.5738 29.2277 20.0207 30.2123 19.0361C31.1969 18.0516 31.75 16.7162 31.75 15.3238C31.75 13.9314 31.1969 12.5961 30.2123 11.6115C29.2277 10.627 27.8924 10.0738 26.5 10.0738H25C25.2189 9.09877 25.2222 8.09445 25.0098 7.11823C24.7974 6.142 24.3734 5.21299 23.7621 4.38423C23.1508 3.55546 22.3641 2.84318 21.4469 2.28805C20.5297 1.73292 19.5001 1.34582 18.4167 1.14883C17.3332 0.95185 16.2173 0.948849 15.1326 1.14C14.048 1.33115 13.0157 1.71272 12.0949 2.2629C10.2351 3.37406 8.94201 5.1046 8.49998 7.07383C6.90091 7.00978 5.32829 7.47943 4.05139 8.40238C2.77449 9.32533 1.87272 10.6442 1.50049 12.1331C1.12827 13.622 1.30873 15.1884 2.01098 16.564C2.71324 17.9396 3.89361 19.039 5.34998 19.6738" stroke="white" stroke-width="1.5" stroke-linecap="round" stroke-linejoin="round"/>
<path opacity="0.4" d="M16 23.5006V10.0006" stroke="white" stroke-width="1.5" stroke-linecap="round" stroke-linejoin="round"/>
<path opacity="0.4" d="M11.5 14.5006L16 10.0006L20.5 14.5006" stroke="white" stroke-width="1.5" stroke-linecap="round" stroke-linejoin="round"/>
</svg>
