<svg width="22" height="20" viewBox="0 0 22 20" fill="none" xmlns="http://www.w3.org/2000/svg">
<path d="M20.2939 5.68387V8.63054H13.0311C12.2814 8.63054 11.6617 9.25027 11.6617 9.99999V13.0467C11.6617 13.7964 12.2814 14.4161 13.0311 14.4161H20.2939V17.3628C20.2939 17.7383 20.0077 18.0244 19.6322 18.0244H2.36777C1.99225 18.0244 1.7061 17.7383 1.7061 17.3628V4.81084C1.9835 4.94477 2.29405 5.02221 2.62166 5.02221H2.62175C6.52284 5.01874 10.7302 5.02001 14.5709 5.02116C16.3603 5.02169 18.07 5.02221 19.6322 5.02221C20.0077 5.02221 20.2939 5.30836 20.2939 5.68387ZM13.0309 9.8461H13.0311H20.2939V13.2005H13.0311C12.9803 13.2005 12.9431 13.1832 12.9188 13.1589C12.8946 13.1347 12.8772 13.0975 12.8772 13.0467V9.99999C12.8772 9.94916 12.8946 9.91188 12.9189 9.88757C12.9431 9.86329 12.9802 9.84599 13.0309 9.8461ZM2.62166 0.759985C1.44998 0.759985 0.490546 1.71942 0.490546 2.8911V17.3628C0.490546 18.3938 1.33674 19.24 2.36777 19.24H19.6322C20.6632 19.24 21.5094 18.3938 21.5094 17.3628V5.68387C21.5094 4.65285 20.6632 3.80665 19.6322 3.80665H18.4628V1.36776C18.4627 1.04666 18.1761 0.760016 17.855 0.759985H2.62166ZM2.62166 1.97554H17.2472V3.80665H2.62166C2.10548 3.80665 1.7061 3.40727 1.7061 2.8911C1.7061 2.37492 2.10548 1.97554 2.62166 1.97554ZM15.57 10.4078C14.9539 10.4078 14.4544 10.9072 14.4544 11.5233C14.4544 12.1394 14.9539 12.6389 15.57 12.6389C16.1861 12.6389 16.6855 12.1394 16.6855 11.5233C16.6855 10.9072 16.1861 10.4078 15.57 10.4078Z" fill="black" stroke="black" stroke-width="0.2"/>
</svg>
