<svg width="24" height="30" viewBox="0 0 24 30" fill="none" xmlns="http://www.w3.org/2000/svg">
<path d="M12.78 0.41813C12.6944 0.289732 12.5784 0.184455 12.4424 0.111642C12.3063 0.0388294 12.1544 0.000732422 12 0.000732422C11.8457 0.000732422 11.6938 0.0388294 11.5577 0.111642C11.4216 0.184455 11.3056 0.289732 11.22 0.41813L5.59503 8.85563C5.50108 8.99681 5.44719 9.16082 5.43908 9.33021C5.43098 9.49959 5.46897 9.66801 5.54902 9.81751C5.62906 9.96701 5.74815 10.092 5.89361 10.1792C6.03907 10.2663 6.20545 10.3124 6.37503 10.3125H6.55878L2.76753 16.3781C2.67884 16.52 2.62974 16.6831 2.62535 16.8504C2.62096 17.0177 2.66143 17.1831 2.74255 17.3295C2.82368 17.4758 2.9425 17.5978 3.08669 17.6828C3.23088 17.7677 3.39518 17.8125 3.56253 17.8125H3.92065L0.849405 23.955C0.777783 24.0979 0.743902 24.2568 0.750981 24.4165C0.75806 24.5762 0.805865 24.7315 0.889851 24.8675C0.973838 25.0035 1.09122 25.1158 1.23083 25.1937C1.37045 25.2716 1.52766 25.3125 1.68753 25.3125H10.125V30H13.875V25.3125H22.3125C22.4724 25.3125 22.6296 25.2716 22.7692 25.1937C22.9088 25.1158 23.0262 25.0035 23.1102 24.8675C23.1942 24.7315 23.242 24.5762 23.2491 24.4165C23.2562 24.2568 23.2223 24.0979 23.1507 23.955L20.0813 17.8125H20.4394C20.6068 17.8125 20.7711 17.7677 20.9152 17.6828C21.0594 17.5978 21.1783 17.4758 21.2594 17.3295C21.3405 17.1831 21.381 17.0177 21.3766 16.8504C21.3722 16.6831 21.3231 16.52 21.2344 16.3781L17.4413 10.3125H17.625C17.7946 10.3124 17.961 10.2663 18.1064 10.1792C18.2519 10.092 18.371 9.96701 18.451 9.81751C18.5311 9.66801 18.5691 9.49959 18.561 9.33021C18.5529 9.16082 18.499 8.99681 18.405 8.85563L12.78 0.41813V0.41813Z" fill="#15CF74"/>
</svg>
